# xmcd
#
# Track frame offsets: 
#        150
#        19573
#        37837
#        56073
#        71512
#        86788
#        102637
#        120614
#        138259
#        151938
#
# Disc length: 2215 seconds
#
# Revision: 0
# Processed by: cddbd v1.5.2PL0 Copyright (c) Steve Scherf et al.
# Submitted via: ExactAudioCopy v0.95b4
#
DISCID=7e08a50a
DTITLE=มนกับก้อย - บะดะโฟ้ว
DYEAR=2006
DGENRE=Country
TTITLE0=บะดะโฟ้ว
TTITLE1=วอนสรยุทธ์
TTITLE2=วอนพี่สรยุทธ์
TTITLE3=สาวสองพันปี
TTITLE4=เฒ่าทารก
TTITLE5=ไอคุกคุก
TTITLE6=รักพี่นาทีละสามบาท
TTITLE7=สามบาทขาดตัว
TTITLE8=เต้ยขอมีเมียน้อย
TTITLE9=จูบนางสั่งลา
EXTD=
EXTT0=
EXTT1=
EXTT2=
EXTT3=
EXTT4=
EXTT5=
EXTT6=
EXTT7=
EXTT8=
EXTT9=
PLAYORDER=
